<svg xmlns="http://www.w3.org/2000/svg" width="40" height="40" fill="none"><g clip-path="url(#a)"><path fill="#F93" d="M2 6.5h36v9H2z"/><path fill="#fff" d="M2 15.5h36v9H2z"/><path fill="#138808" d="M2 24.5h36v9H2z"/></g><path stroke="#fff" stroke-width=".75" d="M1.625 6.125h36.75v27.75H1.625z"/><path fill="navy" d="M20 23.5a3.5 3.5 0 1 0 0-7 3.5 3.5 0 0 0 0 7z"/><path fill="#F7F7F7" d="M20 22.953a2.953 2.953 0 1 0 0-5.906 2.953 2.953 0 0 0 0 5.906z"/><path fill="#6666B3" d="m20.088 18.906-.088.57-.087-.57L20 17.2l.088 1.706zm-.812-1.61.357 1.67.231.527-.063-.572-.525-1.625zm-.676.28.777 1.52.36.45-.208-.537-.929-1.433zm-.58.444 1.144 1.269.465.34-.34-.464-1.27-1.145zm-.445.58 1.434.93.536.208-.449-.36-1.52-.778zm-.28.676 1.626.526.572.063-.527-.232-1.67-.357zM17.2 20l1.706.088.57-.088-.57-.087L17.2 20zm.095.725 1.67-.357.528-.232-.572.063-1.626.526zm.28.675 1.521-.777.45-.36-.537.208-1.434.93zm.445.58 1.269-1.144.34-.465-.465.34-1.144 1.27zm.58.445.93-1.433.208-.537-.36.45-.778 1.52zm.676.28.525-1.626.063-.571-.231.526-.357 1.67zM20 22.8l.088-1.706-.088-.569-.087.569L20 22.8zm.725-.095-.357-1.67-.232-.527.063.571.526 1.626zm.675-.28-.777-1.52-.36-.45.208.537.93 1.433zm.58-.445-1.144-1.268-.465-.34.34.464 1.27 1.144zm.445-.58-1.434-.93-.536-.207.449.36 1.52.777zm.28-.675-1.626-.526-.571-.063.526.232 1.67.357zM22.8 20l-1.706-.087-.569.087.569.088L22.8 20zm-.095-.724-1.67.357-.527.232.57-.063 1.627-.526zm-.28-.676-1.521.777-.449.36.536-.208 1.434-.929zm-.445-.58-1.269 1.145-.34.464.465-.34 1.144-1.269zm-.58-.444-.93 1.433-.207.536.36-.449.777-1.52zm-.675-.28-.526 1.625-.063.572.232-.527.357-1.67z"/><path fill="navy" d="M19.615 17.252a.175.175 0 1 0 0-.35.175.175 0 0 0 0 .35zm-.744.199a.175.175 0 1 0 0-.35.175.175 0 0 0 0 .35zm-.667.384a.175.175 0 1 0 0-.35.175.175 0 0 0 0 .35zm-.544.545a.175.175 0 1 0 0-.35.175.175 0 0 0 0 .35zm-.384.666a.175.175 0 1 0 0-.35.175.175 0 0 0 0 .35zm-.199.744a.175.175 0 1 0 0-.35.175.175 0 0 0 0 .35zm0 .77a.175.175 0 1 0 0-.35.175.175 0 0 0 0 .35zm.199.744a.175.175 0 1 0 0-.35.175.175 0 0 0 0 .35zm.384.666a.175.175 0 1 0 0-.35.175.175 0 0 0 0 .35zm.544.545a.175.175 0 1 0 0-.35.175.175 0 0 0 0 .35zm.667.384a.175.175 0 1 0 0-.35.175.175 0 0 0 0 .35zm.744.199a.175.175 0 1 0 0-.35.175.175 0 0 0 0 .35zm.77 0a.175.175 0 1 0 0-.35.175.175 0 0 0 0 .35zm.744-.199a.175.175 0 1 0 0-.35.175.175 0 0 0 0 .35zm.666-.384a.175.175 0 1 0 0-.35.175.175 0 0 0 0 .35zm.545-.545a.175.175 0 1 0 0-.35.175.175 0 0 0 0 .35zm.384-.666a.175.175 0 1 0 0-.35.175.175 0 0 0 0 .35zm.199-.744a.175.175 0 1 0 0-.35.175.175 0 0 0 0 .35zm0-.77a.175.175 0 1 0 0-.35.175.175 0 0 0 0 .35zm-.199-.744a.175.175 0 1 0 0-.35.175.175 0 0 0 0 .35zm-.384-.666a.175.175 0 1 0 0-.35.175.175 0 0 0 0 .35zm-.545-.545a.175.175 0 1 0 0-.35.175.175 0 0 0 0 .35zm-.666-.384a.175.175 0 1 0 0-.35.175.175 0 0 0 0 .35zm-.744-.199a.175.175 0 1 0 0-.35.175.175 0 0 0 0 .35zM20 20.788a.787.787 0 1 0 0-1.575.787.787 0 0 0 0 1.575z"/><defs><clipPath id="a"><path fill="#fff" d="M2 6.5h36v27H2z"/></clipPath></defs></svg>